<?xml version="1.0" encoding="UTF-8"?> <svg xmlns="http://www.w3.org/2000/svg" viewBox="0 0 384 407.63"><defs><style>.cls-1,.cls-3{fill:#fff;}.cls-1{stroke:#fff;stroke-miterlimit:10;}.cls-2{fill:#086dff;}</style></defs><g id="Layer_2" data-name="Layer 2"><g id="Layer_1-2" data-name="Layer 1"><rect class="cls-1" x="0.5" y="0.5" width="383" height="204"></rect><path class="cls-2" d="M204.68,64.22H173.23v38.13h8.44V73.43h23c16.87,0,30.54,13,30.54,29s-13.73,29-30.54,29H151.13l-11.63,9.27h65.12c21.93,0,39.88-17.17,39.88-38.31S226.67,64.22,204.68,64.22Z"></path><path class="cls-2" d="M225.77,102.47c0-10.78-9.46-19.52-21.09-19.52H191.13v19.4h8.67V92.29h4.82c6.51,0,11.81,4.58,11.81,10.3s-5.3,10.3-11.81,10.3H171.85l-11.63,9.28h44.46C216.31,122,225.77,113.25,225.77,102.47Z"></path><rect class="cls-2" x="0.5" y="203.63" width="383" height="204"></rect><path class="cls-3" d="M204.68,267.35H173.23v38.13h8.44V276.57h23c16.87,0,30.54,13,30.54,29s-13.73,29-30.54,29H151.13l-11.63,9.28h65.12c21.93,0,39.88-17.17,39.88-38.32S226.67,267.35,204.68,267.35Z"></path><path class="cls-3" d="M225.77,305.6c0-10.78-9.46-19.51-21.09-19.51H191.13v19.39h8.67V295.42h4.82c6.51,0,11.81,4.58,11.81,10.3S211.13,316,204.62,316H171.85l-11.63,9.27h44.46C216.31,325.12,225.77,316.39,225.77,305.6Z"></path></g></g></svg> 